<?xml version="1.0" standalone="no"?>
<!DOCTYPE svg PUBLIC "-//W3C//DTD SVG 20010904//EN"
 "http://www.w3.org/TR/2001/REC-SVG-20010904/DTD/svg10.dtd">
<svg version="1.0" xmlns="http://www.w3.org/2000/svg"
 width="1746.000000pt" height="1328.000000pt" viewBox="0 0 1746.000000 1328.000000"
 preserveAspectRatio="xMidYMid meet">

<g transform="translate(0.000000,1328.000000) scale(0.100000,-0.100000)"
fill="#000000" stroke="none">
<path d="M0 6710 l0 -6570 4058 -3 4057 -3 285 -22 c317 -24 434 -36 562 -58
77 -13 95 -13 145 0 94 23 118 25 340 36 168 7 224 14 272 30 55 18 83 20 323
19 318 -2 303 -4 -463 -84 -304 -32 -336 -39 -214 -48 97 -8 283 4 460 28 317
43 363 48 380 41 17 -6 17 -7 -1 -27 l-19 -21 40 17 c81 34 112 45 199 70 l88
25 3474 0 3474 0 0 6570 0 6570 -8730 0 -8730 0 0 -6570z m10291 -908 c341
-110 803 -190 1344 -234 175 -14 1039 -18 1138 -5 l57 7 0 -49 0 -49 -176 -7
c-219 -9 -927 0 -1089 14 -371 33 -712 84 -983 147 -247 57 -442 116 -442 134
0 23 33 81 43 77 7 -2 55 -18 108 -35z m-4559 -167 c244 -35 615 -75 893 -96
232 -17 1030 -23 1293 -10 419 22 764 56 1172 117 129 19 251 39 272 43 l36 8
7 -44 c3 -25 5 -47 3 -49 -7 -7 -370 -63 -573 -88 -513 -65 -914 -89 -1460
-89 -547 0 -946 24 -1460 89 -204 25 -566 81 -573 88 -2 2 -1 24 3 48 l7 45
68 -13 c38 -7 178 -29 312 -49z"/>
</g>
</svg>
