<?xml version="1.0" standalone="no"?>
<!DOCTYPE svg PUBLIC "-//W3C//DTD SVG 20010904//EN"
 "http://www.w3.org/TR/2001/REC-SVG-20010904/DTD/svg10.dtd">
<svg version="1.0" xmlns="http://www.w3.org/2000/svg"
 width="1255.000000pt" height="880.000000pt" viewBox="0 0 1255.000000 880.000000"
 preserveAspectRatio="xMidYMid meet">

<g transform="translate(0.000000,880.000000) scale(0.100000,-0.100000)"
fill="#000000" stroke="none">
<path d="M0 4400 l0 -4400 6275 0 6275 0 0 4400 0 4400 -6275 0 -6275 0 0
-4400z m8390 3698 c0 -353 1 -643 3 -644 1 -2 34 -4 73 -5 l71 -3 2 -40 c1
-23 5 -89 9 -148 l7 -108 -2445 0 -2445 0 1 88 c1 183 4 210 17 209 6 0 42 1
80 1 l67 2 0 645 0 645 2280 0 2279 0 1 -642z m-7027 -736 c9 -48 19 -107 22
-132 4 -25 9 -53 11 -63 4 -12 0 -17 -13 -15 -10 0 -233 0 -495 0 l-478 -2 0
-1575 0 -1575 837 0 836 0 -6 528 c-4 290 -11 640 -17 777 -13 339 -29 665
-36 753 l-6 72 253 0 c140 0 411 5 602 12 529 18 819 -9 1099 -102 335 -112
527 -260 638 -492 71 -147 83 -215 84 -438 1 -212 -11 -299 -61 -447 -79 -238
-243 -455 -457 -607 l-78 -56 521 0 c409 0 522 3 525 13 2 6 11 46 20 87 34
146 135 319 256 438 196 193 508 307 790 288 271 -18 519 -131 696 -319 126
-134 220 -315 241 -464 l6 -43 703 0 704 0 0 163 c0 191 -14 690 -35 1221 -8
208 -15 398 -15 421 l0 42 358 6 c196 4 470 10 607 13 162 5 303 3 400 -5 694
-55 1041 -336 1071 -866 18 -317 -84 -604 -294 -827 -37 -39 -96 -93 -131
-119 l-64 -49 872 0 871 0 0 1575 0 1575 -487 1 c-269 1 -494 1 -501 0 -10 -2
-12 30 -10 146 l3 148 647 2 648 3 0 -3690 0 -3690 -618 0 -617 0 0 150 c0
126 2 149 15 148 8 -1 219 0 468 0 l452 2 0 1655 0 1655 -661 0 -661 0 81 -76
c180 -169 271 -371 287 -634 16 -270 -57 -555 -196 -760 -209 -308 -630 -536
-1143 -620 -230 -38 -423 -44 -931 -31 -258 6 -471 13 -473 15 -3 3 11 439 37
1126 5 140 12 418 16 618 l7 362 -709 0 -710 0 -23 -72 c-49 -153 -164 -329
-280 -426 -129 -109 -292 -190 -456 -228 -120 -28 -369 -26 -488 4 -337 84
-620 334 -714 633 l-28 89 -1414 0 -1414 0 6 -697 c5 -609 13 -908 31 -1085
l5 -48 -180 0 -181 0 6 83 c14 188 42 860 51 1197 3 118 8 290 11 383 l6 167
-836 0 -836 0 0 -1655 0 -1655 428 -2 c235 0 435 0 445 0 16 2 17 -9 15 -146
l-3 -147 -592 -2 -593 -3 0 3690 0 3689 618 1 619 0 16 -88z"/>
<path d="M4130 7945 l0 -495 1980 0 1980 0 0 495 0 495 -1980 0 -1980 0 0
-495z"/>
<path d="M2600 5900 c-107 -4 -215 -8 -240 -9 l-45 -1 2 -442 c2 -244 5 -669
9 -945 l6 -503 593 0 593 0 93 30 c455 149 730 438 794 835 38 229 2 475 -92
634 -126 212 -370 335 -768 386 -152 19 -639 27 -945 15z"/>
<path d="M9060 5619 c-145 -6 -265 -11 -265 -12 -1 -1 2 -132 6 -292 4 -159 8
-518 8 -796 l1 -506 128 -6 c198 -11 662 -8 770 4 212 23 424 81 592 162 68
32 101 57 165 121 116 117 169 227 201 426 29 175 2 379 -68 513 -20 38 -64
94 -113 143 -63 64 -97 89 -165 122 -102 50 -222 85 -362 107 -131 21 -537 27
-898 14z"/>
<path d="M6279 4661 c-87 -65 -196 -184 -287 -311 -76 -107 -157 -259 -168
-317 l-6 -33 337 0 337 0 -7 30 c-9 40 15 40 75 0 33 -22 57 -30 89 -30 l45 0
-43 31 c-72 53 -192 118 -288 155 -51 20 -90 40 -87 45 32 52 357 88 594 66
73 -6 83 -5 68 6 -10 8 -70 20 -138 27 -154 17 -371 8 -503 -20 -113 -24 -267
-82 -293 -111 -22 -25 -30 -24 -37 3 -13 47 122 220 304 390 74 70 105 104 96
110 -19 12 -20 11 -88 -41z"/>
<path d="M5736 4638 l-39 -20 6 -166 c4 -142 39 -437 53 -451 10 -10 11 8 4
54 -14 79 -11 317 4 465 8 74 14 135 13 136 -1 1 -19 -7 -41 -18z"/>
<path d="M5290 4174 c-11 -29 -5 -39 77 -132 32 -37 43 -43 69 -40 l30 3 -83
98 c-83 97 -83 98 -93 71z"/>
<path d="M5262 4084 c-23 -92 -28 -84 44 -84 74 0 74 1 5 79 l-39 44 -10 -39z"/>
<path d="M5804 3650 c73 -47 155 -86 219 -104 62 -18 67 -31 15 -39 -18 -2
-76 -15 -128 -27 -80 -20 -124 -23 -275 -24 -99 -1 -204 3 -232 7 -44 6 -52 5
-47 -7 8 -20 23 -24 132 -37 141 -17 362 -6 492 25 132 31 184 48 287 96 46
21 84 36 87 32 29 -52 -194 -323 -387 -467 -34 -26 -53 -47 -45 -49 55 -17 60
-15 120 42 182 173 375 435 413 560 l6 22 -352 0 -353 0 48 -30z"/>
<path d="M6567 3623 c4 -32 7 -156 7 -275 -1 -120 1 -218 3 -218 2 0 17 7 33
15 30 15 30 16 30 109 0 105 -15 272 -33 361 -9 44 -17 61 -30 63 -17 3 -18
-1 -10 -55z"/>
<path d="M6960 3676 c0 -2 13 -20 29 -40 27 -34 29 -35 34 -14 7 26 -17 58
-45 58 -10 0 -18 -2 -18 -4z"/>
<path d="M8808 3293 c-3 -462 3 -1168 11 -1343 l6 -125 70 -13 c103 -19 604
-27 767 -12 642 58 1073 279 1239 633 56 120 72 205 73 382 1 137 -2 172 -22
245 -75 274 -277 479 -581 590 l-82 30 -739 0 -740 0 -2 -387z"/>
</g>
</svg>
