<?xml version="1.0" standalone="no"?>
<!DOCTYPE svg PUBLIC "-//W3C//DTD SVG 20010904//EN"
 "http://www.w3.org/TR/2001/REC-SVG-20010904/DTD/svg10.dtd">
<svg version="1.0" xmlns="http://www.w3.org/2000/svg"
 width="1070.000000pt" height="895.000000pt" viewBox="0 0 1070.000000 895.000000"
 preserveAspectRatio="xMidYMid meet">
<metadata>
Created by potrace 1.16, written by Peter Selinger 2001-2019
</metadata>
<g transform="translate(0.000000,895.000000) scale(0.100000,-0.100000)"
fill="#000000" stroke="none">
<path d="M5235 8909 c-33 -13 -95 -67 -95 -83 0 -6 -41 -51 -90 -99 -49 -48
-150 -163 -223 -255 -145 -180 -715 -941 -749 -997 -14 -25 -28 -35 -46 -36
-15 -1 -234 -4 -487 -8 l-460 -6 -25 30 c-183 224 -576 358 -944 324 -338 -32
-621 -169 -751 -364 l-35 -53 -57 1 c-48 0 -74 -7 -147 -41 -117 -55 -190
-116 -441 -367 -425 -424 -508 -597 -535 -1105 -36 -700 -54 -1600 -54 -2770
-1 -970 0 -1066 17 -1190 36 -259 80 -381 213 -581 95 -142 170 -226 463 -520
275 -275 395 -379 517 -449 113 -65 166 -79 337 -91 164 -11 2292 -6 2407 6
60 6 75 3 200 -40 372 -127 725 -189 1080 -189 354 0 719 63 1070 186 135 47
151 51 230 49 47 -1 108 -7 137 -13 64 -13 1701 -4 1933 12 184 12 379 36 458
56 207 52 444 247 748 614 212 255 293 374 386 565 137 283 153 571 145 2580
-5 1294 -13 1606 -42 1780 -53 314 -187 573 -483 934 -214 260 -336 379 -518
501 -116 77 -174 101 -312 130 -75 15 -370 50 -423 50 -5 0 -95 132 -202 293
-278 419 -422 600 -607 764 -137 121 -265 203 -460 293 l-172 80 -761 4 c-419
3 -859 8 -977 11 -146 3 -225 1 -245 -6z m1764 -315 l174 -5 141 -68 c78 -38
173 -91 211 -118 135 -96 292 -259 442 -458 64 -86 301 -437 310 -461 4 -12
-49 -13 -383 -10 -423 4 -1727 -7 -2789 -23 -368 -5 -671 -8 -673 -7 -4 4 464
632 586 786 139 176 217 263 287 322 l70 59 725 -6 c399 -3 803 -8 899 -11z
m-4571 -1079 c186 -35 312 -93 403 -184 86 -86 117 -159 99 -238 -43 -194
-314 -343 -655 -359 -325 -16 -636 112 -728 300 -35 71 -35 126 0 197 69 139
257 247 502 289 82 14 294 11 379 -5z m6457 -368 c228 -33 274 -51 420 -165
176 -136 455 -458 600 -692 161 -261 197 -395 217 -808 18 -357 18 -3003 1
-3287 -14 -215 -42 -410 -74 -503 -43 -126 -156 -302 -328 -512 -257 -314
-405 -458 -551 -534 -74 -39 -164 -58 -360 -76 -170 -15 -943 -31 -1354 -28
l-359 3 109 80 c372 272 736 677 922 1025 202 377 336 841 373 1290 38 469
-94 1088 -338 1574 -179 357 -488 724 -855 1017 -348 277 -723 457 -1207 579
-620 156 -1218 125 -1858 -94 -473 -163 -804 -374 -1188 -760 -364 -365 -559
-672 -716 -1126 -139 -400 -204 -822 -179 -1160 33 -447 147 -866 344 -1257
196 -392 575 -819 990 -1116 l79 -57 -884 0 c-1010 1 -1124 5 -1202 45 -121
60 -343 258 -620 550 -317 335 -398 466 -442 712 -33 189 -38 403 -32 1373 11
1569 45 2696 89 2900 27 129 48 178 125 295 53 81 111 145 303 337 291 291
359 339 374 267 10 -52 64 -152 116 -216 126 -156 356 -267 644 -309 268 -40
606 21 818 146 170 101 295 273 323 442 5 35 8 37 48 42 23 3 715 12 1537 21
822 9 1520 17 1550 19 30 1 595 2 1255 1 1046 -1 1214 -4 1310 -18z m-3324
-1197 c404 -40 819 -159 1171 -336 217 -109 510 -335 733 -566 225 -233 364
-425 485 -673 194 -395 303 -846 304 -1250 0 -259 -38 -516 -119 -792 -137
-472 -348 -826 -705 -1184 -377 -378 -748 -599 -1248 -745 -498 -144 -933
-167 -1406 -73 -394 78 -767 224 -1045 406 -421 278 -809 698 -1003 1088 -182
364 -284 734 -318 1154 -37 455 131 1134 384 1555 210 350 555 705 921 951
135 90 224 139 379 205 483 207 1027 303 1467 260z"/>
<path d="M7685 6568 c-228 -13 -327 -51 -396 -153 -61 -89 -72 -184 -39 -323
25 -103 48 -149 99 -195 106 -95 122 -97 831 -104 795 -7 944 4 1045 82 81 61
120 158 119 295 -1 168 -59 297 -159 355 -88 52 -130 55 -765 53 -322 0 -652
-5 -735 -10z m1267 -157 c151 -10 174 -23 206 -112 46 -126 24 -267 -47 -304
-55 -28 -167 -36 -581 -42 -502 -6 -957 8 -1018 32 -53 21 -78 53 -98 123 -50
171 3 267 161 287 160 21 1135 32 1377 16z"/>
<path d="M5217 5249 c-293 -20 -592 -95 -869 -219 -377 -168 -780 -541 -987
-915 -104 -187 -199 -465 -242 -710 -32 -178 -32 -473 -1 -645 58 -319 174
-620 323 -842 172 -256 461 -530 727 -691 284 -172 711 -295 1086 -314 407
-20 965 131 1301 352 257 169 513 421 672 660 207 311 343 771 343 1158 0 385
-138 847 -344 1156 -213 319 -551 619 -871 772 -267 128 -608 218 -882 234
-54 3 -109 7 -123 9 -14 1 -73 -1 -133 -5z m428 -274 c378 -69 692 -204 930
-399 372 -304 580 -621 685 -1045 91 -365 78 -680 -45 -1047 -101 -306 -235
-515 -477 -750 -235 -228 -451 -360 -748 -458 -278 -91 -558 -129 -796 -108
-339 31 -700 145 -935 297 -233 150 -462 372 -610 591 -180 267 -309 699 -309
1033 0 341 142 787 337 1061 79 109 283 324 393 413 274 221 592 356 985 418
149 23 448 20 590 -6z"/>
<path d="M5048 4614 c-377 -59 -666 -198 -924 -446 -251 -242 -388 -491 -456
-832 -29 -147 -31 -366 -4 -511 43 -235 144 -476 270 -642 149 -199 410 -417
601 -504 495 -224 1002 -224 1499 0 285 129 610 451 741 734 48 105 99 261
126 387 18 85 23 137 23 270 0 186 -18 294 -80 480 -74 223 -177 393 -343 564
-237 243 -471 380 -792 461 -212 54 -469 69 -661 39z m547 -269 c297 -67 503
-180 711 -389 188 -189 292 -387 351 -666 24 -115 24 -325 0 -440 -60 -285
-165 -480 -361 -675 -212 -210 -412 -316 -727 -387 -89 -20 -131 -23 -289 -23
-166 1 -197 4 -305 29 -124 29 -273 80 -360 124 -153 76 -357 250 -471 401
-120 159 -205 368 -239 586 -49 308 50 674 249 928 201 258 462 426 779 502
160 39 209 44 382 41 131 -3 182 -8 280 -31z"/>
</g>
</svg>
